<svg xmlns="http://www.w3.org/2000/svg" width="11.709" height="21.805" viewBox="0 0 11.709 21.805">
  <defs>
    <style>
      .cls-1 {
        fill: #a6967b;
      }
    </style>
  </defs>
  <path id="arrow-down" class="cls-1" d="M0,10.977a.7.7,0,0,0,.216.517.7.7,0,0,0,.517.216.7.7,0,0,0,.517-.216l9.729-9.729,9.578,9.578A.731.731,0,1,0,21.59,10.31L11.494.216a.727.727,0,0,0-1.033,0L.216,10.439a.5.5,0,0,0-.075.1.737.737,0,0,0-.054.108l-.043.108-.032.108Z" transform="translate(11.709) rotate(90)"/>
</svg>
